HIERARCHY
ROOT Hips
{
	OFFSET -0.001795 -0.223333 0.028219
	CHANNELS 6 Xposition Yposition Zposition Zrotation Yrotation Xrotation 
	JOINT LeftUpLeg
	{
		OFFSET 0.069520 -0.091406 -0.006815
		CHANNELS 3 Zrotation Yrotation Xrotation
		JOINT LeftLeg
		{
			OFFSET 0.034277 -0.375199 -0.004496
			CHANNELS 3 Zrotation Yrotation Xrotation
			JOINT LeftFoot
			{
				OFFSET -0.013596 -0.397961 -0.043693
				CHANNELS 3 Zrotation Yrotation Xrotation
				JOINT LeftToe
				{
					OFFSET 0.026358 -0.055791 0.119288
					CHANNELS 3 Zrotation Yrotation Xrotation
					End Site
					{
						OFFSET 0.000000 0.000000 0.000000
					}
				}
			}
		}
	}
	JOINT RightUpLeg
	{
		OFFSET -0.067670 -0.090522 -0.004320
		CHANNELS 3 Zrotation Yrotation Xrotation
		JOINT RightLeg
		{
			OFFSET -0.038290 -0.382569 -0.008850
			CHANNELS 3 Zrotation Yrotation Xrotation
			JOINT RightFoot
			{
				OFFSET 0.015774 -0.398415 -0.042312
				CHANNELS 3 Zrotation Yrotation Xrotation
				JOINT RightToe
				{
					OFFSET -0.025372 -0.048144 0.123348
					CHANNELS 3 Zrotation Yrotation Xrotation
					End Site
					{
						OFFSET 0.000000 0.000000 0.000000
					}
				}
			}
		}
	}
	JOINT Spine
	{
		OFFSET -0.002533 0.108963 -0.026696
		CHANNELS 3 Zrotation Yrotation Xrotation
		JOINT Spine1
		{
			OFFSET 0.005487 0.135180 0.001092
			CHANNELS 3 Zrotation Yrotation Xrotation
			JOINT Spine2
			{
				OFFSET 0.001457 0.052922 0.025425
				CHANNELS 3 Zrotation Yrotation Xrotation
				JOINT Neck
				{
					OFFSET -0.002778 0.213870 -0.042857
					CHANNELS 3 Zrotation Yrotation Xrotation
					JOINT Head
					{
						OFFSET 0.005152 0.064970 0.051349
						CHANNELS 3 Zrotation Yrotation Xrotation
						End Site
						{
							OFFSET 0.000000 0.000000 0.000000
						}
					}
				}
				JOINT LeftShoulder
				{
					OFFSET 0.078845 0.121749 -0.034090
					CHANNELS 3 Zrotation Yrotation Xrotation
					JOINT LeftArm
					{
						OFFSET 0.090977 0.030469 -0.008868
						CHANNELS 3 Zrotation Yrotation Xrotation
						JOINT LeftForeArm
						{
							OFFSET 0.259612 -0.012772 -0.027456
							CHANNELS 3 Zrotation Yrotation Xrotation
							JOINT LeftHand
							{
								OFFSET 0.249234 0.008986 -0.001171
								CHANNELS 3 Zrotation Yrotation Xrotation
								End Site
								{
									OFFSET 0.000000 0.000000 0.000000
								}
							}
						}
					}
				}
				JOINT RightShoulder
				{
					OFFSET -0.081759 0.118833 -0.038615
					CHANNELS 3 Zrotation Yrotation Xrotation
					JOINT RightArm
					{
						OFFSET -0.096012 0.032551 -0.009143
						CHANNELS 3 Zrotation Yrotation Xrotation
						JOINT RightForeArm
						{
							OFFSET -0.253742 -0.013329 -0.021401
							CHANNELS 3 Zrotation Yrotation Xrotation
							JOINT RightHand
							{
								OFFSET -0.255298 0.007772 -0.005559
								CHANNELS 3 Zrotation Yrotation Xrotation
								End Site
								{
									OFFSET 0.000000 0.000000 0.000000
								}
							}
						}
					}
				}
			}
		}
	}
}
MOTION
Frames: 16
Frame Time: 0.050000
0.000000 0.937971 0.000000 0.397552 -3.537831 2.274437 3.647609 -0.314286 -4.619907 -0.064013 -0.195004 6.898984 -2.187414 1.033810 13.370649 0.000000 0.000000 0.000000 -3.680980 0.578324 -6.593631 -3.048625 1.258071 12.973987 -4.709626 -14.600995 14.595740 0.000000 0.000000 0.000000 7.640369 -0.360596 2.370746 -1.140662 0.549899 -1.222597 -2.236173 3.956248 1.371462 6.969630 -6.261016 3.268784 0.000000 0.000000 0.000000 6.304213 4.743246 -0.517558 -4.558404 -8.217098 -0.547105 9.477449 -11.915335 -0.595614 0.000000 0.000000 0.000000 -11.808177 -10.806109 -1.801110 1.552021 8.710458 -0.503872 -11.024703 21.996882 -1.055220 0.000000 0.000000 0.000000 
-0.002531 0.938400 -0.001201 -0.221193 -2.988127 2.539858 4.077884 -0.301210 -4.498064 0.787118 -0.315725 5.962204 -2.408956 0.718183 13.284611 0.000000 0.000000 0.000000 -3.046133 0.570052 -6.322152 -2.950977 1.220628 12.894002 -3.896959 -12.839629 12.950816 0.000000 0.000000 0.000000 8.921499 -0.301042 1.420559 -1.130284 0.539796 0.336298 -3.014895 3.893376 0.615480 7.017311 -6.445751 3.973522 0.000000 0.000000 0.000000 2.711083 4.956743 -1.143750 -6.338835 -6.562665 -0.587226 10.877765 -17.219417 -1.114076 0.000000 0.000000 0.000000 -10.049399 -10.108230 -1.947267 4.307676 7.307882 -0.522140 -7.241664 24.743156 -0.446241 0.000000 0.000000 0.000000 
-0.004082 0.937556 -0.002911 0.214160 -3.629715 2.446254 3.279580 -0.307987 -4.316360 1.422681 -0.412254 5.793062 -2.043403 1.193891 13.206492 0.000000 0.000000 0.000000 -3.445946 0.668361 -7.739843 -2.005495 1.218260 15.550364 -5.087533 -14.837094 11.669375 0.000000 0.000000 0.000000 9.647979 -0.362917 1.856826 -1.443037 0.689718 -1.154834 -3.895677 4.926260 3.188292 6.684858 -5.849562 2.073587 0.000000 0.000000 0.000000 0.307190 5.295258 -1.683725 -11.829050 -6.915286 -0.858340 11.455889 -21.951544 -1.621336 0.000000 0.000000 0.000000 -4.952544 -10.527769 -2.966310 6.544963 7.553549 -0.648706 -8.560028 31.007687 -0.855930 0.000000 0.000000 0.000000 
-0.005023 0.936116 -0.004687 0.346326 -2.948280 2.513461 3.403407 -0.377816 -5.456924 1.185614 -0.434114 7.273644 -2.264768 0.774562 12.785154 0.000000 0.000000 0.000000 -3.864963 0.709677 -8.592648 -0.981683 1.036300 16.900675 -5.888138 -16.217608 11.668416 0.000000 0.000000 0.000000 10.208216 -0.408852 2.035013 -1.910315 0.911033 -0.534382 -3.905989 4.352757 3.860437 6.475122 -5.493212 1.163740 0.000000 0.000000 0.000000 -4.709748 4.917789 -2.477185 -17.834198 -5.673006 -1.295770 14.088117 -29.136045 -2.870864 0.000000 0.000000 0.000000 -1.335714 -10.194548 -3.376729 10.403420 7.301583 -0.796249 -6.079762 35.332025 -0.284101 0.000000 0.000000 0.000000 
-0.005249 0.934083 -0.006417 0.644349 -2.940689 2.496514 3.104594 -0.445825 -6.375150 1.163707 -0.486004 8.725460 -2.111863 0.829870 12.241012 0.000000 0.000000 0.000000 -4.387299 0.724802 -9.140525 -0.219900 0.872052 17.410972 -6.779954 -17.818291 11.711751 0.000000 0.000000 0.000000 10.163538 -0.436343 2.265776 -1.680676 0.803462 -0.056466 -4.460295 5.310002 3.739709 7.007361 -5.703833 0.072284 0.000000 0.000000 0.000000 -9.367248 4.493307 -3.294721 -24.624639 -3.741483 -1.961543 14.561647 -37.756578 -4.115618 0.000000 0.000000 0.000000 3.462474 -9.927190 -3.957208 15.660500 6.974002 -1.049939 -3.787163 41.608759 0.675512 0.000000 0.000000 0.000000 
-0.005019 0.931899 -0.007481 0.755609 -2.175677 2.554709 3.104840 -0.511954 -7.353614 1.050374 -0.522220 10.015876 -2.303425 0.340925 11.528363 0.000000 0.000000 0.000000 -4.931194 0.755054 -10.196574 0.378934 0.783713 19.432725 -6.672838 -17.548170 11.461094 0.000000 0.000000 0.000000 10.010490 -0.429729 2.185426 -1.850234 0.885138 1.347731 -4.034037 4.584323 3.168518 6.860361 -5.245511 -1.430614 0.000000 0.000000 0.000000 -13.603945 4.463999 -4.107986 -33.078964 -1.374416 -3.178787 11.707965 -45.755004 -3.833449 0.000000 0.000000 0.000000 7.323960 -8.525048 -3.905390 21.928670 6.561486 -1.300974 -1.303736 46.201102 1.761377 0.000000 0.000000 0.000000 
-0.004411 0.929658 -0.008053 1.048435 -1.906491 2.641692 2.880400 -0.546470 -7.669785 0.862203 -0.497603 10.278085 -2.264176 0.140439 10.761549 0.000000 0.000000 0.000000 -5.495015 0.765618 -11.008770 0.536258 0.786836 20.742986 -6.496058 -17.188098 11.169996 0.000000 0.000000 0.000000 9.822627 -0.465227 2.473015 -1.636112 0.778508 0.965701 -3.989337 5.179771 3.548307 7.059081 -4.993725 -3.364158 0.000000 0.000000 0.000000 -18.266831 3.689349 -4.843505 -39.716959 2.233569 -4.914599 3.444617 -50.159172 -0.491485 0.000000 0.000000 0.000000 11.626827 -7.364963 -3.815524 28.011168 5.572962 -1.815336 2.446528 50.146078 3.826471 0.000000 0.000000 0.000000 
-0.003709 0.928042 -0.008750 1.161327 -1.383720 2.360161 2.769507 -0.563462 -7.811696 0.837113 -0.523404 10.871454 -2.382084 -0.248681 10.143277 0.000000 0.000000 0.000000 -5.513164 0.782661 -11.587903 0.261604 0.925081 22.562940 -6.437663 -17.030435 11.084682 0.000000 0.000000 0.000000 9.870167 -0.536516 3.066738 -2.090496 0.998667 1.587017 -3.756742 4.902006 2.866638 6.956172 -4.605190 -4.784805 0.000000 0.000000 0.000000 -21.186426 2.908201 -5.069022 -45.514777 4.025601 -6.306157 -5.425942 -49.218938 3.577867 0.000000 0.000000 0.000000 15.299848 -5.801559 -3.440145 33.930005 5.198805 -2.159130 6.773198 51.998862 6.062607 0.000000 0.000000 0.000000 
-0.002788 0.926787 -0.010092 1.097354 -0.449191 2.165814 2.980729 -0.586766 -8.267839 0.622133 -0.525204 11.656803 -2.719208 -0.937277 9.656985 0.000000 0.000000 0.000000 -5.479626 0.788924 -12.049078 0.153144 0.949716 23.694150 -6.544824 -17.214748 12.123370 0.000000 0.000000 0.000000 9.789381 -0.599985 3.582589 -1.721162 0.809397 1.638914 -3.856651 4.949357 2.824758 6.753802 -4.009483 -6.892139 0.000000 0.000000 0.000000 -23.725450 0.749420 -4.560297 -49.220769 3.527585 -6.622458 -7.697698 -43.790475 4.021067 0.000000 0.000000 0.000000 18.595191 -4.321280 -2.818002 38.873131 5.251900 -2.469960 10.017437 51.252089 7.606966 0.000000 0.000000 0.000000 
-0.001570 0.925777 -0.012532 0.850760 0.197460 1.863641 3.074179 -0.627251 -8.934930 0.863091 -0.646853 12.974730 -2.903287 -1.358740 9.275868 0.000000 0.000000 0.000000 -5.116064 0.823757 -12.467747 -0.198015 1.076540 24.996439 -6.429712 -16.974507 12.589477 0.000000 0.000000 0.000000 10.127720 -0.688743 4.176835 -2.029161 0.953956 2.181974 -3.913370 4.593375 2.447540 7.014630 -3.778069 -8.995367 0.000000 0.000000 0.000000 -24.834303 -1.238172 -3.648968 -50.869111 2.469394 -6.382067 -8.414610 -39.423922 3.870472 0.000000 0.000000 0.000000 19.813330 -3.084063 -2.213062 42.262916 5.783979 -2.444420 14.728852 48.963328 9.318492 0.000000 0.000000 0.000000 
-0.000050 0.924699 -0.015607 0.617432 0.432778 1.716222 3.238869 -0.685615 -9.998115 0.848003 -0.726705 14.720079 -2.918841 -1.452073 9.073782 0.000000 0.000000 0.000000 -4.971749 0.865298 -13.110357 -0.302582 1.138954 26.039222 -6.252719 -16.674623 13.176619 0.000000 0.000000 0.000000 10.047452 -0.827416 5.297963 -2.384246 1.131282 1.680483 -3.672453 4.167291 2.549252 7.064237 -3.584933 -10.344412 0.000000 0.000000 0.000000 -25.358859 -3.033951 -2.555532 -51.125400 1.576016 -6.064909 -9.187674 -36.797471 3.925629 0.000000 0.000000 0.000000 20.193228 -1.780015 -1.586090 43.323096 6.080669 -2.374206 18.433504 45.850574 10.090247 0.000000 0.000000 0.000000 
0.001291 0.924059 -0.018574 0.396255 0.443664 1.728004 3.387583 -0.749447 -11.190134 0.825130 -0.798570 16.439449 -2.891879 -1.349921 9.189253 0.000000 0.000000 0.000000 -4.790377 0.910941 -13.619187 -0.482381 1.237002 26.860347 -5.822193 -15.869809 12.667926 0.000000 0.000000 0.000000 9.933049 -0.886677 5.803376 -2.590164 1.233033 1.582048 -3.738249 3.881378 2.341704 7.412132 -3.647247 -11.334455 0.000000 0.000000 0.000000 -25.137405 -3.924167 -1.917562 -49.665175 0.443218 -5.396311 -10.894357 -34.734127 4.262115 0.000000 0.000000 0.000000 19.795266 -1.147654 -1.279831 43.791769 6.149968 -2.317142 21.640345 43.600966 10.750465 0.000000 0.000000 0.000000 
0.002230 0.924053 -0.020490 0.164485 0.351038 1.744227 3.633706 -0.740943 -11.401530 0.723417 -0.775751 16.584604 -2.838513 -1.290452 9.128718 0.000000 0.000000 0.000000 -4.389413 0.964581 -13.843361 -0.701030 1.330354 27.042803 -5.956628 -16.115371 12.628553 0.000000 0.000000 0.000000 9.511179 -0.874411 5.928900 -2.532233 1.205186 1.557146 -3.767261 3.508228 2.393759 7.646872 -3.861267 -11.194499 0.000000 0.000000 0.000000 -25.154654 -4.613164 -1.367856 -47.790707 -0.257500 -4.911632 -11.765660 -34.490780 4.550698 0.000000 0.000000 0.000000 19.291942 -0.660956 -1.089501 43.459704 6.251812 -2.229484 23.806610 41.266428 10.834229 0.000000 0.000000 0.000000 
0.002710 0.924055 -0.021309 -0.005982 0.043687 1.811048 3.612487 -0.746529 -11.531209 0.992691 -0.839228 16.691377 -2.662256 -1.036846 9.062589 0.000000 0.000000 0.000000 -4.154516 1.005083 -14.013105 -0.879144 1.401760 26.701516 -6.023719 -16.324036 13.330092 0.000000 0.000000 0.000000 9.261816 -0.863823 5.978490 -2.720616 1.300695 1.983398 -3.783049 2.981836 1.841574 8.046393 -4.303091 -10.439620 0.000000 0.000000 0.000000 -25.132467 -4.463979 -1.247704 -45.031383 -0.520109 -4.495850 -13.504704 -34.182959 5.098581 0.000000 0.000000 0.000000 19.223043 -0.409835 -1.132421 42.533773 6.058598 -2.163433 24.666624 39.485619 10.482580 0.000000 0.000000 0.000000 
0.002892 0.924270 -0.021302 -0.192572 -0.228665 1.709890 3.791299 -0.721351 -11.442492 0.984643 -0.833481 16.817127 -2.553378 -0.851137 9.101972 0.000000 0.000000 0.000000 -3.802280 1.039895 -13.956668 -1.166846 1.497309 26.178788 -6.255727 -16.853860 14.654223 0.000000 0.000000 0.000000 8.892127 -0.803772 5.728114 -2.740649 1.313598 1.847725 -3.844543 2.960554 1.958524 8.156654 -4.564218 -9.543413 0.000000 0.000000 0.000000 -24.371922 -3.745508 -1.527513 -42.749360 -0.079149 -4.414157 -14.814441 -35.653112 5.763023 0.000000 0.000000 0.000000 18.927695 -0.843144 -1.387129 41.503562 5.535944 -2.286849 25.251006 38.070878 10.231018 0.000000 0.000000 0.000000 
0.002780 0.923872 -0.021089 -0.183512 -0.508998 1.797973 3.782409 -0.726303 -11.574303 0.963015 -0.824965 16.999870 -2.393683 -0.633503 9.015575 0.000000 0.000000 0.000000 -3.575173 1.071046 -14.005395 -1.631246 1.628297 25.326717 -6.651893 -17.649523 16.200688 0.000000 0.000000 0.000000 8.336883 -0.714518 5.255874 -2.751968 1.320839 1.722020 -3.912416 3.218424 2.117698 8.052215 -4.646202 -8.742070 0.000000 0.000000 0.000000 -23.254505 -2.650859 -2.048679 -40.485173 0.366662 -4.306181 -16.942595 -38.157331 6.913496 0.000000 0.000000 0.000000 19.196991 -1.393366 -1.666374 40.256658 5.422188 -2.308697 25.033134 36.813797 9.788596 0.000000 0.000000 0.000000 
